<svg width="30" height="30" viewBox="0 0 30 30" fill="none" xmlns="http://www.w3.org/2000/svg">
<path fill-rule="evenodd" clip-rule="evenodd" d="M5.67476 2.5H9.89976C11.6623 2.5 13.0748 3.9375 13.0748 5.70125V9.9625C13.0748 11.7375 11.6623 13.1625 9.89976 13.1625H5.67476C3.92476 13.1625 2.49976 11.7375 2.49976 9.9625V5.70125C2.49976 3.9375 3.92476 2.5 5.67476 2.5ZM5.67476 16.8371H9.89976C11.6623 16.8371 13.0748 18.2634 13.0748 20.0384V24.2996C13.0748 26.0621 11.6623 27.4996 9.89976 27.4996H5.67476C3.92476 27.4996 2.49976 26.0621 2.49976 24.2996V20.0384C2.49976 18.2634 3.92476 16.8371 5.67476 16.8371ZM24.3249 2.5H20.0999C18.3374 2.5 16.9249 3.9375 16.9249 5.70125V9.9625C16.9249 11.7375 18.3374 13.1625 20.0999 13.1625H24.3249C26.0749 13.1625 27.4999 11.7375 27.4999 9.9625V5.70125C27.4999 3.9375 26.0749 2.5 24.3249 2.5ZM20.0999 16.8371H24.3249C26.0749 16.8371 27.4999 18.2634 27.4999 20.0384V24.2996C27.4999 26.0621 26.0749 27.4996 24.3249 27.4996H20.0999C18.3374 27.4996 16.9249 26.0621 16.9249 24.2996V20.0384C16.9249 18.2634 18.3374 16.8371 20.0999 16.8371Z" fill="white"/>
</svg>
