<svg width="30" height="30" viewBox="0 0 30 30" fill="none" xmlns="http://www.w3.org/2000/svg">
<path fill-rule="evenodd" clip-rule="evenodd" d="M10.5823 6.5453C10.3035 6.9219 10.3355 7.45909 10.6878 7.8C11.0628 8.175 11.6753 8.175 12.0503 7.8L14.0378 5.8V10.975H15.9628V5.8L17.9503 7.8L18.0581 7.89298C18.4347 8.1719 18.9718 8.14091 19.3127 7.8C19.5002 7.6125 19.6003 7.3625 19.6003 7.1125C19.6003 6.875 19.5002 6.625 19.3127 6.4375L15.6753 2.7875L15.5619 2.6856C15.4003 2.564 15.2003 2.5 15.0003 2.5C14.7378 2.5 14.5003 2.6 14.3128 2.7875L10.6753 6.4375L10.5823 6.5453ZM7.78895 10.9814C4.84739 11.1203 2.5 13.5948 2.5 16.6093V22.8157L2.50605 23.0814C2.64262 26.0749 5.07536 28.4753 8.0625 28.4753H21.95L22.211 28.4691C25.1526 28.3302 27.5 25.8553 27.5 22.8284V16.6348L27.4939 16.3681C27.3567 13.3636 24.9125 10.9753 21.9375 10.9753H15.9625V18.6061L15.9536 18.7402C15.889 19.222 15.4812 19.5854 15 19.5854C14.4625 19.5854 14.0375 19.1529 14.0375 18.6061V10.9753H8.05L7.78895 10.9814Z" fill="#343F5A"/>
</svg>
