<svg width="30" height="30" viewBox="0 0 30 30" fill="none" xmlns="http://www.w3.org/2000/svg">
<path fill-rule="evenodd" clip-rule="evenodd" d="M21.2633 18.2515C21.7808 18.2515 22.2008 17.8315 22.2008 17.314V14.999C22.2008 14.4815 21.7808 14.0615 21.2633 14.0615H14.1483C13.7433 12.7278 12.5158 11.7478 11.0508 11.7478C9.25826 11.7478 7.79951 13.2065 7.79951 14.999C7.79951 16.7928 9.25826 18.2515 11.0508 18.2515C12.5158 18.2515 13.7433 17.2715 14.1483 15.9365H16.7883V17.314C16.7883 17.8315 17.2083 18.2515 17.7258 18.2515C18.2433 18.2515 18.6633 17.8315 18.6633 17.314V15.9365H20.3258V17.314C20.3258 17.8315 20.7458 18.2515 21.2633 18.2515ZM9.58201 2.499H20.4183C24.6533 2.499 27.4995 5.4715 27.4995 9.89525V20.104C27.4995 24.5278 24.6533 27.499 20.417 27.499H9.58201C5.34576 27.499 2.49951 24.5278 2.49951 20.104V9.89525C2.49951 5.4715 5.34576 2.499 9.58201 2.499ZM9.67339 15.0001C9.67339 14.2401 10.2921 13.6226 11.0509 13.6226C11.8096 13.6226 12.4284 14.2401 12.4284 15.0001C12.4284 15.7589 11.8096 16.3764 11.0509 16.3764C10.2921 16.3764 9.67339 15.7589 9.67339 15.0001Z" fill="#343F5A"/>
</svg>
