<svg width="50" height="50" viewBox="0 0 50 50" fill="none" xmlns="http://www.w3.org/2000/svg">
<path fill-rule="evenodd" clip-rule="evenodd" d="M33.6631 17.1518C33.6631 22.0469 29.7606 25.9721 24.8937 25.9721C20.0268 25.9721 16.1244 22.0469 16.1244 17.1518C16.1244 12.2547 20.0268 8.33333 24.8937 8.33333C29.7606 8.33333 33.6631 12.2547 33.6631 17.1518ZM24.8937 41.6667C17.7454 41.6667 11.6418 40.5334 11.6418 36.0003C11.6418 31.4654 17.7063 30.2909 24.8937 30.2909C32.042 30.2909 38.1457 31.4241 38.1457 35.9591C38.1457 40.4921 32.0812 41.6667 24.8937 41.6667ZM37.4105 17.3109C37.4105 19.8063 36.6662 22.131 35.3604 24.0636C35.2261 24.2624 35.3455 24.5307 35.5824 24.572C35.9089 24.6283 36.2465 24.6602 36.5897 24.6696C40.0128 24.7596 43.0851 22.5438 43.9339 19.2078C45.1912 14.2526 41.4995 9.80395 36.7987 9.80395C36.2875 9.80395 35.7988 9.85836 35.3231 9.95593C35.2578 9.97094 35.1888 10.001 35.1515 10.0591C35.1067 10.1304 35.1403 10.2261 35.1851 10.288C36.5972 12.2787 37.4105 14.7066 37.4105 17.3109ZM43.0795 28.1512C45.3796 28.6034 46.8925 29.5265 47.5193 30.868C48.049 31.9694 48.049 33.2471 47.5193 34.3466C46.5604 36.4274 43.4694 37.0953 42.2681 37.268C42.02 37.3055 41.8204 37.0897 41.8465 36.8402C42.4602 31.0744 37.5784 28.3407 36.3155 27.7121C36.2614 27.684 36.2502 27.6408 36.2558 27.6146C36.2596 27.5958 36.2819 27.5658 36.323 27.5602C39.0558 27.5095 41.9939 27.8848 43.0795 28.1512ZM13.4106 24.6694C13.7538 24.66 14.0896 24.63 14.4179 24.5718C14.6548 24.5306 14.7742 24.2623 14.6399 24.0634C13.3341 22.1308 12.5898 19.8061 12.5898 17.3107C12.5898 14.7064 13.4031 12.2786 14.8152 10.2878C14.86 10.2259 14.8917 10.1302 14.8488 10.0589C14.8115 10.0026 14.7406 9.97075 14.6772 9.95574C14.1996 9.85817 13.7109 9.80376 13.1998 9.80376C8.49891 9.80376 4.80724 14.2524 6.0664 19.2076C6.91516 22.5436 9.98751 24.7595 13.4106 24.6694ZM13.7435 27.6134C13.7491 27.6416 13.7379 27.6829 13.6857 27.7129C12.421 28.3414 7.53915 31.0752 8.15287 36.839C8.17899 37.0905 7.98125 37.3044 7.73315 37.2687C6.53182 37.0961 3.44081 36.4281 2.48199 34.3474C1.95034 33.246 1.95034 31.9701 2.48199 30.8688C3.10877 29.5272 4.61976 28.6041 6.91983 28.1501C8.00737 27.8855 10.9435 27.5103 13.6783 27.5609C13.7193 27.5665 13.7398 27.5966 13.7435 27.6134Z" fill="white"/>
</svg>
